<?xml version="1.0" standalone="no"?>
<!DOCTYPE svg PUBLIC "-//W3C//DTD SVG 20010904//EN"
 "http://www.w3.org/TR/2001/REC-SVG-20010904/DTD/svg10.dtd">
<svg version="1.0" xmlns="http://www.w3.org/2000/svg"
 width="200.000000pt" height="200.000000pt" viewBox="0 0 200.000000 200.000000"
 preserveAspectRatio="xMidYMid meet">

<g transform="translate(0.000000,200.000000) scale(0.100000,-0.100000)"
fill="#000000" stroke="none">
<path d="M100 1000 l0 -250 900 0 900 0 0 250 0 250 -900 0 -900 0 0 -250z
m1010 0 l0 -220 -480 0 -480 0 0 220 0 220 480 0 480 0 0 -220z m308 8 l-3
-113 -30 0 c-25 0 -30 3 -27 23 5 33 -41 31 -56 -3 -11 -23 -49 -35 -64 -20
-3 3 12 54 33 112 22 59 39 108 39 110 0 2 25 3 55 3 l56 0 -3 -112z m121 100
c0 -7 -8 -58 -17 -113 -16 -91 -19 -100 -41 -103 -36 -6 -40 8 -26 83 7 39 16
87 19 108 6 33 10 37 36 37 18 0 30 -5 29 -12z m172 2 c24 -13 26 -76 3 -108
-13 -18 -14 -29 -5 -54 18 -51 15 -60 -21 -56 -27 3 -33 9 -46 46 -16 49 -23
48 -31 -5 -6 -34 -10 -38 -39 -41 -17 -2 -32 0 -32 4 0 8 28 166 36 202 4 20
10 22 60 22 30 0 64 -5 75 -10z"/>
<path d="M302 1061 c-18 -11 -12 -53 8 -58 12 -4 12 -3 2 5 -23 16 -9 46 23
53 27 6 28 7 5 8 -14 0 -31 -3 -38 -8z"/>
<path d="M422 995 l1 -80 6 65 6 65 28 -48 c16 -27 30 -47 32 -45 1 2 8 14 14
28 11 23 11 24 -3 6 -15 -18 -16 -18 -33 14 -10 18 -26 42 -35 54 -17 20 -17
18 -16 -59z"/>
<path d="M535 1038 c-13 -27 -13 -30 -1 -14 14 17 15 14 19 -40 3 -58 3 -58 5
14 1 39 0 72 -3 72 -2 0 -12 -15 -20 -32z"/>
<path d="M636 1033 c-9 -19 -15 -37 -13 -40 2 -2 10 10 17 27 7 16 16 27 21
24 5 -3 9 -1 9 5 0 25 -18 17 -34 -16z"/>
<path d="M752 993 c0 -43 3 -63 5 -45 3 26 9 32 28 32 15 0 30 -11 44 -32 11
-18 21 -29 21 -25 0 4 -7 18 -15 31 -14 21 -14 24 0 36 18 15 20 51 3 68 -7 7
-29 12 -50 12 l-38 0 2 -77z m83 32 c0 -27 -3 -30 -37 -33 -38 -3 -38 -3 -38
33 0 36 0 36 38 33 34 -3 37 -6 37 -33z"/>
<path d="M892 1063 c26 -4 27 -7 31 -76 l3 -72 2 72 2 72 33 4 c17 2 3 4 -33
4 -36 0 -53 -2 -38 -4z"/>
<path d="M684 998 c5 -15 -1 -18 -33 -18 -34 0 -40 -4 -50 -30 -12 -36 -5 -41
9 -5 8 20 16 25 44 25 28 0 38 -6 50 -27 22 -41 18 -15 -5 32 -11 22 -17 32
-15 23z"/>
<path d="M346 990 c31 -12 38 -28 22 -47 -11 -14 -11 -15 2 -11 37 12 12 69
-29 67 -11 0 -9 -3 5 -9z"/>
<path d="M287 939 c7 -7 15 -10 18 -7 3 3 -2 9 -12 12 -14 6 -15 5 -6 -5z"/>
<path d="M328 923 c7 -3 16 -2 19 1 4 3 -2 6 -13 5 -11 0 -14 -3 -6 -6z"/>
<path d="M1340 1034 c-14 -35 -13 -44 5 -44 10 0 15 11 15 35 0 41 -7 45 -20
9z"/>
<path d="M1630 1045 c0 -20 4 -26 18 -23 9 2 17 12 17 23 0 11 -8 21 -17 23
-14 3 -18 -3 -18 -23z"/>
</g>
</svg>
